<?xml version="1.0" encoding="utf-8"?>
<!-- Generator: Adobe Illustrator 25.2.3, SVG Export Plug-In . SVG Version: 6.00 Build 0)  -->
<svg version="1.1" id="Capa_1" xmlns="http://www.w3.org/2000/svg" xmlns:xlink="http://www.w3.org/1999/xlink" x="0px" y="0px"
	 viewBox="0 0 388.7 190.3" style="enable-background:new 0 0 388.7 190.3;" xml:space="preserve">
<style type="text/css">
	.st0{fill:#42210B;}
	.st1{fill:#A67C52;}
	.st2{fill:#8C6239;}
	.st3{fill:#C69C6D;}
	.st4{fill:#FFFFFF;}
	.st5{fill:#FBB03B;}
</style>
<g id="Buho">
	<path id="Oreja_derecha" class="st0" d="M137.2,49.2l-8-21c-1.1-2.8-5-3.6-7.4-1.7l-15,12.6c-2.4,2-1.7,5.5,1.3,6.6l23,8.8
		C134.6,55.7,138.4,52.5,137.2,49.2z"/>
	<path id="Oreja_izquierda" class="st0" d="M53.2,54.7l21.7-8.9c3.2-1.3,3.7-5.1,0.9-7L58,26.7c-2.8-1.8-6.7-0.5-7.2,2.6l-4.1,21
		C46.3,53.7,50,56.2,53.2,54.7z"/>
	
		<ellipse id="Pata_izquierda" transform="matrix(0.8234 -0.5675 0.5675 0.8234 -63.1318 63.6628)" class="st1" cx="70.7" cy="133.3" rx="19.3" ry="13.7"/>
	
		<ellipse id="Pata_derecha" transform="matrix(0.5871 -0.8095 0.8095 0.5871 -62.8469 143.3254)" class="st1" cx="109.1" cy="133.3" rx="13.2" ry="19.6"/>
	<ellipse id="Cuerpo" class="st2" cx="90.5" cy="86.3" rx="67.2" ry="47.7"/>
	<ellipse id="Pecho" class="st3" cx="90.5" cy="103.5" rx="36.7" ry="29.8"/>
	<path id="Ala_izquierda" class="st0" d="M53.2,126c-8,3.8-20-6.1-26.5-22.4c-6.7-16.1-5.8-32.1,2.2-35.9s20,6.1,26.5,22.4
		C62.3,106.2,61.2,122.2,53.2,126z"/>
	<path id="Parte_fondo_ojos" class="st3" d="M111.3,43.1c-8.9,0-16.7,3.8-20.6,9.4c-3.9-5.6-11.7-9.4-20.4-9.4
		c-12.6,0-23,7.8-23,17.4s10.2,17.4,23,17.4c8.9,0,16.7-3.8,20.6-9.4c3.9,5.6,11.7,9.4,20.4,9.4c12.6,0,23-7.8,23-17.4
		S123.9,43.1,111.3,43.1z"/>
	<ellipse id="Fondo_ojo_izquierdo" cx="68.8" cy="60.6" rx="15.4" ry="13.1"/>
	<ellipse id="Fondo_ojo_derecho" cx="113.3" cy="60.6" rx="15.4" ry="13.1"/>
	<ellipse id="Ojo_izquierdo" class="st4" cx="65.8" cy="54" rx="8.2" ry="3.3"/>
	<path id="Pico" class="st5" d="M88.6,77.8L84.3,72c-1.1-1.7,0.2-3.5,2.6-3.5h8.7c2.4,0,3.9,2,2.6,3.5l-4.3,5.8
		C92.7,79.3,89.7,79.3,88.6,77.8z"/>
	<ellipse id="Ojo_derecho" class="st4" cx="111.6" cy="54.2" rx="8.2" ry="3.3"/>
	<path id="Ala_derecha" class="st0" d="M126.5,125.9c-8.9-2-10.2-16.4-3.3-32.3c7-15.9,19.7-27.3,28.6-25.5
		c8.9,2,10.2,16.4,3.3,32.3C148,116.3,135.2,127.7,126.5,125.9z"/>
	<g id="Plumas">
		<path class="st2" d="M66,91.6c6.1,6,13.7-0.2,13.7-0.2"/>
		<path class="st2" d="M83.8,91.8c6.1,6,13.7-0.2,13.7-0.2"/>
		<path class="st2" d="M101.2,91.8c6.1,6,13.7-0.2,13.7-0.2"/>
		<path class="st2" d="M74,103.2c6.1,6,13.7-0.2,13.7-0.2"/>
		<path class="st2" d="M94.6,103.2c6.1,6,13.7-0.2,13.7-0.2"/>
		<path class="st2" d="M84.9,112.1c6.1,6,13.7,0,13.7,0"/>
	</g>
</g>
<g>
	<path d="M219.4,63.4V34.8h-4.2v-1.2h9.4v1.2H221v28.1c0,9.7-3.3,15.5-16.5,15.5c-10.5,0-18-3.7-18-16.2V34.8H183v-1.2h20.3v1.2
		h-4.2v29.6c0,7,1.7,12,9.6,12C215.2,76.4,219.4,72.4,219.4,63.4z"/>
	<path d="M241,52.8c1.4-3.2,3.9-5.6,8.9-5.6c7.2,0,11.7,5,11.7,15.7c0,10.8-4.5,15.6-13.3,15.6c-4.4,0-6-1.1-7.2-3.1v16.4h8.3v1.1
		h-23.8v-1.1h3.5V48.9h-3.4v-1.1H241V52.8z M241.2,58.6v11.6c0,3.4,1.4,6.5,4.2,6.5c3.2,0,3.8-3.7,3.8-12.5v-3.3c0-8.9-0.8-11-3-11
		C243.5,49.9,241.2,53.1,241.2,58.6z"/>
	<path d="M265,67.2h0.8c2.4,7.7,6.3,9.9,11.6,9.9c4.8,0,6.6-1.7,6.6-4.1c0-2.8-3.2-3.5-8.1-4.8c-5.2-1.4-10.9-3.3-10.9-10.4
		c0-6.4,4.5-10.7,11.3-10.7c2.8,0,4.8,0.7,6.5,1.5c0.8,0.3,1,0.5,1.8,0.5c1,0,1.4-0.5,2.3-2.1h0.7v9.7h-0.8
		c-2.3-5.8-5.6-8.2-10.2-8.2c-4.3,0-6,1.7-6,3.7c0,2.9,3.9,3.6,8.1,4.7c5.1,1.3,10.8,3.3,10.8,10.8c0,7.2-4.8,10.8-12.1,10.8
		c-3.1,0-5.3-0.6-7.7-1.8c-0.4-0.3-1-0.5-1.2-0.5c-0.8,0-1.7,0.6-2.8,2.3H265V67.2z"/>
	<path d="M299.3,67.5c3.4,0,5.7,1.6,5.7,5.4c0,3.4-1.9,5.6-5.5,5.6c-4.3,0-5.7-2.9-5.7-5.4C293.7,70,295.7,67.5,299.3,67.5z"/>
	<path d="M316.4,67.5c3.4,0,5.7,1.6,5.7,5.4c0,3.4-1.9,5.6-5.5,5.6c-4.3,0-5.7-2.9-5.7-5.4C310.8,70,312.7,67.5,316.4,67.5z"/>
	<path d="M333.4,67.5c3.4,0,5.7,1.6,5.7,5.4c0,3.4-1.9,5.6-5.5,5.6c-4.3,0-5.7-2.9-5.7-5.4C327.9,70,329.8,67.5,333.4,67.5z"/>
</g>
<g>
	<path d="M183.5,104.9v8.4h-1.8l-4.8-5.1v5.1h-2.2v-8.4h1.9l4.8,5.1v-5.1H183.5z"/>
	<path d="M185.1,110c0-1.9,1.7-3.3,4.1-3.3c2.4,0,4.1,1.4,4.1,3.3c0,1.9-1.7,3.3-4.1,3.3C186.9,113.4,185.1,112,185.1,110z
		 M191.1,110c0-1.1-0.8-1.8-1.9-1.8c-1.1,0-1.9,0.7-1.9,1.8s0.8,1.8,1.9,1.8C190.3,111.8,191.1,111.2,191.1,110z"/>
	<path d="M203.5,113c-0.4,0.3-1.1,0.4-1.8,0.4c-1.8,0-2.8-0.8-2.8-2.3v-2.7h-1.1V107h1.1v-1.6h2.2v1.6h1.9v1.4h-1.9v2.6
		c0,0.6,0.3,0.9,0.9,0.9c0.3,0,0.6-0.1,0.9-0.2L203.5,113z"/>
	<path d="M204.4,104.9c0-0.6,0.5-1,1.3-1s1.3,0.4,1.3,1c0,0.6-0.5,1.1-1.3,1.1S204.4,105.5,204.4,104.9z M204.7,106.8h2.2v6.5h-2.2
		V106.8z"/>
	<path d="M216.1,110.6h-5.6c0.2,0.8,1,1.3,2.1,1.3c0.8,0,1.4-0.2,1.9-0.6l1.1,1.1c-0.7,0.7-1.7,1-3.1,1c-2.6,0-4.2-1.4-4.2-3.3
		c0-1.9,1.7-3.3,4-3.3c2.2,0,3.9,1.3,3.9,3.3C216.2,110.2,216.1,110.4,216.1,110.6z M210.5,109.5h3.7c-0.2-0.8-0.9-1.3-1.8-1.3
		C211.3,108.1,210.6,108.6,210.5,109.5z"/>
	<path d="M225.2,109.6v3.7h-2.2v-3.4c0-1-0.6-1.5-1.5-1.5c-1,0-1.8,0.6-1.8,1.7v3.2h-2.2v-6.5h2.1v0.8c0.6-0.6,1.5-0.9,2.5-0.9
		C223.9,106.7,225.2,107.6,225.2,109.6z"/>
	<path d="M234.5,110.6h-5.6c0.2,0.8,1,1.3,2.1,1.3c0.8,0,1.4-0.2,1.9-0.6l1.1,1.1c-0.7,0.7-1.7,1-3.1,1c-2.6,0-4.2-1.4-4.2-3.3
		c0-1.9,1.7-3.3,4-3.3c2.2,0,3.9,1.3,3.9,3.3C234.5,110.2,234.5,110.4,234.5,110.6z M228.8,109.5h3.7c-0.2-0.8-0.9-1.3-1.8-1.3
		C229.7,108.1,229,108.6,228.8,109.5z"/>
	<path d="M235.3,112.7l0.7-1.3c0.7,0.4,1.7,0.6,2.6,0.6c1,0,1.4-0.2,1.4-0.6c0-1.1-4.5,0-4.5-2.6c0-1.2,1.3-2.1,3.4-2.1
		c1,0,2.2,0.2,2.9,0.6l-0.7,1.3c-0.7-0.4-1.5-0.5-2.1-0.5c-1,0-1.4,0.3-1.4,0.6c0,1.1,4.5,0,4.5,2.6c0,1.2-1.3,2.1-3.5,2.1
		C237.2,113.4,236,113.1,235.3,112.7z"/>
	<path d="M255.4,110c0,2-1.6,3.3-3.7,3.3c-0.9,0-1.7-0.3-2.2-0.8v3h-2.2v-8.8h2.1v0.7c0.5-0.6,1.3-0.8,2.3-0.8
		C253.8,106.7,255.4,108,255.4,110z M253.2,110c0-1.1-0.8-1.8-1.9-1.8c-1.1,0-1.9,0.7-1.9,1.8s0.8,1.8,1.9,1.8
		C252.4,111.8,253.2,111.2,253.2,110z"/>
	<path d="M264.1,110.6h-5.6c0.2,0.8,1,1.3,2.1,1.3c0.8,0,1.4-0.2,1.9-0.6l1.1,1.1c-0.7,0.7-1.7,1-3.1,1c-2.6,0-4.2-1.4-4.2-3.3
		c0-1.9,1.7-3.3,4-3.3c2.2,0,3.9,1.3,3.9,3.3C264.1,110.2,264.1,110.4,264.1,110.6z M258.4,109.5h3.7c-0.2-0.8-0.9-1.3-1.8-1.3
		C259.3,108.1,258.6,108.6,258.4,109.5z"/>
	<path d="M270.2,106.7v1.7c-0.2,0-0.3,0-0.5,0c-1.2,0-2,0.6-2,1.8v3h-2.2v-6.5h2.1v0.9C268.1,107,269,106.7,270.2,106.7z"/>
	<path d="M284,109.6v3.7h-2.2v-3.4c0-1-0.5-1.5-1.4-1.5c-1,0-1.6,0.5-1.6,1.7v3.2h-2.2v-3.4c0-1-0.5-1.5-1.4-1.5
		c-1,0-1.6,0.5-1.6,1.7v3.2h-2.2v-6.5h2.1v0.7c0.6-0.6,1.4-0.8,2.3-0.8c1,0,1.9,0.3,2.4,1.1c0.6-0.7,1.6-1.1,2.7-1.1
		C282.8,106.7,284,107.6,284,109.6z"/>
	<path d="M285.7,104.9c0-0.6,0.5-1,1.3-1s1.3,0.4,1.3,1c0,0.6-0.5,1.1-1.3,1.1S285.7,105.5,285.7,104.9z M286,106.8h2.2v6.5H286
		V106.8z"/>
	<path d="M289.4,112.7l0.7-1.3c0.7,0.4,1.7,0.6,2.6,0.6c1,0,1.4-0.2,1.4-0.6c0-1.1-4.5,0-4.5-2.6c0-1.2,1.3-2.1,3.4-2.1
		c1,0,2.2,0.2,2.9,0.6l-0.7,1.3c-0.7-0.4-1.5-0.5-2.1-0.5c-1,0-1.4,0.3-1.4,0.6c0,1.1,4.5,0,4.5,2.6c0,1.2-1.3,2.1-3.5,2.1
		C291.4,113.4,290.1,113.1,289.4,112.7z"/>
	<path d="M296.9,110c0-1.9,1.7-3.3,4.1-3.3c2.4,0,4.1,1.4,4.1,3.3c0,1.9-1.7,3.3-4.1,3.3C298.7,113.4,296.9,112,296.9,110z
		 M302.9,110c0-1.1-0.8-1.8-1.9-1.8c-1.1,0-1.9,0.7-1.9,1.8s0.8,1.8,1.9,1.8C302.1,111.8,302.9,111.2,302.9,110z"/>
	<path d="M305.8,112.7l0.7-1.3c0.7,0.4,1.7,0.6,2.6,0.6c1,0,1.4-0.2,1.4-0.6c0-1.1-4.5,0-4.5-2.6c0-1.2,1.3-2.1,3.4-2.1
		c1,0,2.2,0.2,2.9,0.6l-0.7,1.3c-0.7-0.4-1.5-0.5-2.1-0.5c-1,0-1.4,0.3-1.4,0.6c0,1.1,4.5,0,4.5,2.6c0,1.2-1.3,2.1-3.5,2.1
		C307.8,113.4,306.5,113.1,305.8,112.7z"/>
	<path d="M325.9,110c0,2-1.6,3.3-3.7,3.3c-0.9,0-1.7-0.3-2.2-0.8v3h-2.2v-8.8h2.1v0.7c0.5-0.6,1.3-0.8,2.3-0.8
		C324.3,106.7,325.9,108,325.9,110z M323.8,110c0-1.1-0.8-1.8-1.9-1.8c-1.1,0-1.9,0.7-1.9,1.8s0.8,1.8,1.9,1.8
		C322.9,111.8,323.8,111.2,323.8,110z"/>
	<path d="M333.9,109.6v3.7h-2v-0.8c-0.4,0.6-1.2,0.9-2.3,0.9c-1.7,0-2.8-0.8-2.8-2c0-1.1,0.9-1.9,3.2-1.9h1.7c0-0.8-0.6-1.3-1.7-1.3
		c-0.8,0-1.6,0.2-2.1,0.6l-0.8-1.3c0.8-0.5,2-0.8,3.2-0.8C332.5,106.7,333.9,107.6,333.9,109.6z M331.7,111.2v-0.7h-1.5
		c-1,0-1.3,0.3-1.3,0.8c0,0.5,0.5,0.8,1.2,0.8C330.8,112.1,331.4,111.8,331.7,111.2z"/>
	<path d="M340.4,106.7v1.7c-0.2,0-0.3,0-0.5,0c-1.2,0-2,0.6-2,1.8v3h-2.2v-6.5h2.1v0.9C338.4,107,339.3,106.7,340.4,106.7z"/>
	<path d="M348.3,109.6v3.7h-2v-0.8c-0.4,0.6-1.2,0.9-2.3,0.9c-1.7,0-2.8-0.8-2.8-2c0-1.1,0.9-1.9,3.2-1.9h1.7c0-0.8-0.6-1.3-1.7-1.3
		c-0.8,0-1.6,0.2-2.1,0.6l-0.8-1.3c0.8-0.5,2-0.8,3.2-0.8C347,106.7,348.3,107.6,348.3,109.6z M346.1,111.2v-0.7h-1.5
		c-1,0-1.3,0.3-1.3,0.8c0,0.5,0.5,0.8,1.2,0.8C345.2,112.1,345.9,111.8,346.1,111.2z"/>
	<path d="M181.1,124v3.7h-2v-0.8c-0.4,0.6-1.2,0.9-2.3,0.9c-1.7,0-2.8-0.8-2.8-2c0-1.1,0.9-1.9,3.2-1.9h1.7c0-0.8-0.6-1.3-1.7-1.3
		c-0.8,0-1.6,0.2-2.1,0.6l-0.8-1.3c0.8-0.5,2-0.8,3.2-0.8C179.8,121.1,181.1,122,181.1,124z M178.9,125.6V125h-1.5
		c-1,0-1.3,0.3-1.3,0.8c0,0.5,0.5,0.8,1.2,0.8C178.1,126.5,178.7,126.2,178.9,125.6z"/>
	<path d="M182.6,124.4c0-1.9,1.7-3.3,4.2-3.3c1.6,0,2.8,0.6,3.3,1.6l-1.7,0.8c-0.4-0.6-1-0.9-1.7-0.9c-1.1,0-2,0.7-2,1.8
		c0,1.1,0.9,1.8,2,1.8c0.7,0,1.3-0.3,1.7-0.9l1.7,0.8c-0.5,1-1.8,1.6-3.3,1.6C184.3,127.8,182.6,126.4,182.6,124.4z"/>
	<path d="M190.7,124.4c0-1.9,1.7-3.3,4.2-3.3c1.6,0,2.8,0.6,3.3,1.6l-1.7,0.8c-0.4-0.6-1-0.9-1.7-0.9c-1.1,0-2,0.7-2,1.8
		c0,1.1,0.9,1.8,2,1.8c0.7,0,1.3-0.3,1.7-0.9l1.7,0.8c-0.5,1-1.8,1.6-3.3,1.6C192.4,127.8,190.7,126.4,190.7,124.4z"/>
	<path d="M206.6,125h-5.6c0.2,0.8,1,1.3,2.1,1.3c0.8,0,1.4-0.2,1.9-0.6l1.1,1.1c-0.7,0.7-1.7,1-3.1,1c-2.6,0-4.2-1.4-4.2-3.3
		c0-1.9,1.7-3.3,4-3.3c2.2,0,3.9,1.3,3.9,3.3C206.6,124.6,206.6,124.8,206.6,125z M200.9,123.9h3.7c-0.2-0.8-0.9-1.3-1.8-1.3
		C201.8,122.5,201,123,200.9,123.9z"/>
	<path d="M215.6,118.8v8.9h-2.1v-0.7c-0.5,0.6-1.3,0.8-2.3,0.8c-2.1,0-3.7-1.3-3.7-3.3c0-2,1.6-3.3,3.7-3.3c0.9,0,1.7,0.3,2.2,0.8
		v-3.1H215.6z M213.5,124.4c0-1.1-0.8-1.8-1.9-1.8c-1.1,0-1.9,0.7-1.9,1.8s0.8,1.8,1.9,1.8C212.7,126.2,213.5,125.6,213.5,124.4z"/>
	<path d="M224.9,125h-5.6c0.2,0.8,1,1.3,2.1,1.3c0.8,0,1.4-0.2,1.9-0.6l1.1,1.1c-0.7,0.7-1.7,1-3.1,1c-2.6,0-4.2-1.4-4.2-3.3
		c0-1.9,1.7-3.3,4-3.3c2.2,0,3.9,1.3,3.9,3.3C224.9,124.6,224.9,124.8,224.9,125z M219.2,123.9h3.7c-0.2-0.8-0.9-1.3-1.8-1.3
		C220.1,122.5,219.4,123,219.2,123.9z"/>
	<path d="M231,121.1v1.7c-0.2,0-0.3,0-0.5,0c-1.2,0-2,0.6-2,1.8v3h-2.2v-6.5h2.1v0.9C228.9,121.4,229.8,121.1,231,121.1z"/>
	<path d="M242.8,124v3.7h-2v-0.8c-0.4,0.6-1.2,0.9-2.3,0.9c-1.7,0-2.8-0.8-2.8-2c0-1.1,0.9-1.9,3.2-1.9h1.7c0-0.8-0.6-1.3-1.7-1.3
		c-0.8,0-1.6,0.2-2.1,0.6l-0.8-1.3c0.8-0.5,2-0.8,3.2-0.8C241.5,121.1,242.8,122,242.8,124z M240.7,125.6V125h-1.5
		c-1,0-1.3,0.3-1.3,0.8c0,0.5,0.5,0.8,1.2,0.8C239.8,126.5,240.4,126.2,240.7,125.6z"/>
	<path d="M244.8,118.8h2.2v8.9h-2.2V118.8z"/>
	<path d="M257.5,121.1v1.7c-0.2,0-0.3,0-0.5,0c-1.2,0-2,0.6-2,1.8v3h-2.2v-6.5h2.1v0.9C255.5,121.4,256.3,121.1,257.5,121.1z"/>
	<path d="M266,125h-5.6c0.2,0.8,1,1.3,2.1,1.3c0.8,0,1.4-0.2,1.9-0.6l1.1,1.1c-0.7,0.7-1.7,1-3.1,1c-2.6,0-4.2-1.4-4.2-3.3
		c0-1.9,1.7-3.3,4-3.3c2.2,0,3.9,1.3,3.9,3.3C266,124.6,266,124.8,266,125z M260.3,123.9h3.7c-0.2-0.8-0.9-1.3-1.8-1.3
		C261.2,122.5,260.5,123,260.3,123.9z"/>
	<path d="M266.9,124.4c0-1.9,1.7-3.3,4.2-3.3c1.6,0,2.8,0.6,3.3,1.6l-1.7,0.8c-0.4-0.6-1-0.9-1.7-0.9c-1.1,0-2,0.7-2,1.8
		c0,1.1,0.9,1.8,2,1.8c0.7,0,1.3-0.3,1.7-0.9l1.7,0.8c-0.5,1-1.8,1.6-3.3,1.6C268.6,127.8,266.9,126.4,266.9,124.4z"/>
	<path d="M283.1,121.2v6.5h-2v-0.8c-0.6,0.6-1.4,0.9-2.3,0.9c-1.9,0-3.2-0.9-3.2-2.9v-3.6h2.2v3.4c0,1.1,0.6,1.6,1.5,1.6
		c1,0,1.7-0.6,1.7-1.7v-3.2H283.1z"/>
	<path d="M289.8,121.1v1.7c-0.2,0-0.3,0-0.5,0c-1.2,0-2,0.6-2,1.8v3h-2.2v-6.5h2.1v0.9C287.7,121.4,288.6,121.1,289.8,121.1z"/>
	<path d="M290.4,127.1l0.7-1.3c0.7,0.4,1.7,0.6,2.6,0.6c1,0,1.4-0.2,1.4-0.6c0-1.1-4.5,0-4.5-2.6c0-1.2,1.3-2.1,3.4-2.1
		c1,0,2.2,0.2,2.9,0.6l-0.7,1.3c-0.7-0.4-1.5-0.5-2.1-0.5c-1,0-1.4,0.3-1.4,0.6c0,1.1,4.5,0,4.5,2.6c0,1.2-1.3,2.1-3.5,2.1
		C292.3,127.8,291,127.5,290.4,127.1z"/>
	<path d="M297.9,124.4c0-1.9,1.7-3.3,4.1-3.3c2.4,0,4.1,1.4,4.1,3.3c0,1.9-1.7,3.3-4.1,3.3C299.6,127.8,297.9,126.4,297.9,124.4z
		 M303.9,124.4c0-1.1-0.8-1.8-1.9-1.8c-1.1,0-1.9,0.7-1.9,1.8s0.8,1.8,1.9,1.8C303.1,126.2,303.9,125.6,303.9,124.4z"/>
</g>
</svg>
